# xmcd
#
# Track frame offsets:
#	150
#	18226
#	31952
#	44103
#	61579
#	78080
#	90381
#	103882
#	118133
#	130059
#
# Disc length: 1951 seconds
#
# Revision: 1
# Processed by: cddbd v1.5.2PL0 Copyright (c) Steve Scherf et al.
# Submitted via: audiograbber 1.83.01
#
DISCID=77079d0a
DTITLE=Clint Black - No Time To Kill
DYEAR=1993
DGENRE=Country
TTITLE0=No Time To Kill
TTITLE1=Thankin' Again
TTITLE2=A Good Run Of Bad Luck
TTITLE3=State Of Mind
TTITLE4=A Bad Goodbye
TTITLE5=Back To Back
TTITLE6=Half The Man
TTITLE7=I'll Take Texas
TTITLE8=Happiness Alone
TTITLE9=Tuckered Out
EXTD=
EXTT0=
EXTT1=
EXTT2=
EXTT3=
EXTT4=
EXTT5=
EXTT6=
EXTT7=
EXTT8=
EXTT9=
PLAYORDER=
